<svg width="23" height="22" viewBox="0 0 23 22" fill="none" xmlns="http://www.w3.org/2000/svg">
<path d="M7.23599 21.345C6.75993 21.3238 6.29347 21.2051 5.86596 20.9965C5.43844 20.7879 5.05914 20.4939 4.75194 20.133C4.44474 19.7721 4.21627 19.3521 4.08094 18.8994C3.94562 18.4467 3.90636 17.9712 3.96562 17.5028L4.21306 15.573C4.26029 15.2028 4.21607 14.8269 4.08423 14.4774C3.95238 14.1279 3.73683 13.8153 3.45611 13.5666L1.99298 12.2714C1.51384 11.8473 1.16402 11.299 0.983095 10.6883C0.802165 10.0775 0.797332 9.42882 0.969164 8.81552C1.141 8.20223 1.48266 7.6488 1.95544 7.21784C2.42823 6.78688 3.0133 6.49558 3.6445 6.3769L5.57336 6.01394C5.94314 5.94443 6.29031 5.78693 6.58498 5.55497C6.87965 5.32301 7.113 5.02355 7.2649 4.6824L8.05661 2.90117C8.31584 2.31889 8.73432 1.82007 9.26473 1.46106C9.79514 1.10206 10.4163 0.897193 11.0581 0.869627C11.6999 0.842061 12.3367 0.992878 12.8965 1.30506C13.4562 1.61724 13.9167 2.07833 14.2258 2.6362L15.1696 4.34133C15.3507 4.66871 15.6094 4.94754 15.9235 5.15375C16.2376 5.35996 16.5976 5.48735 16.9725 5.52495L18.9252 5.7204C19.5644 5.78445 20.1728 6.02443 20.6815 6.41317C21.1902 6.80192 21.579 7.32395 21.8038 7.92019C22.0286 8.51643 22.0806 9.16309 21.9538 9.78706C21.827 10.411 21.5265 10.9874 21.0863 11.451L19.7414 12.8675C19.4832 13.1389 19.2957 13.4685 19.1949 13.8278C19.0942 14.1872 19.0833 14.5654 19.1632 14.9298L19.5781 16.8319C19.7139 17.4539 19.6714 18.1011 19.4553 18.7003C19.2393 19.2995 18.8584 19.8269 18.3556 20.2229C17.8528 20.6189 17.2482 20.8676 16.6102 20.941C15.9722 21.0144 15.3262 20.9095 14.7452 20.6382L12.9694 19.8093C12.629 19.6495 12.2544 19.5743 11.878 19.5904C11.5017 19.6064 11.1349 19.7131 10.8096 19.9012L9.11284 20.8801C8.54484 21.2094 7.89357 21.3707 7.23599 21.345Z" fill="white"/>
</svg>
